Coordinates
version=1
nRows=20
nColumns=34
inDegrees=yes

Units are S.I. units (second, meters, Newtons, ...)
If the header above contains a line with 'inDegrees', this indicates whether rotational values are in degrees (yes) or radians (no).

endheader
time	pelvis_tilt	pelvis_list	pelvis_rotation	pelvis_tx	pelvis_ty	pelvis_tz	hip_flexion_r	hip_adduction_r	hip_rotation_r	knee_angle_r	ankle_angle_r	subtalar_angle_r	mtp_angle_r	hip_flexion_l	hip_adduction_l	hip_rotation_l	knee_angle_l	ankle_angle_l	subtalar_angle_l	mtp_angle_l	lumbar_extension	lumbar_bending	lumbar_rotation	arm_flex_r	arm_add_r	arm_rot_r	elbow_flex_r	pro_sup_r	arm_flex_l	arm_add_l	arm_rot_l	elbow_flex_l	pro_sup_l
      2.98333330	     -1.13981550	     -2.43575151	    -26.33905628	      1.03306961	      1.00107773	      0.21412316	      6.94013768	     -2.33058090	     -4.47304373	     14.03509525	      7.75164379	     -7.75261573	      0.00000000	      8.28952716	      1.51714466	     -0.15740827	      9.63550423	      8.19984759	    -10.72548785	      0.00000000	     -9.64671429	      3.04285085	     13.09331315	     15.96823326	    -17.09003850	      2.69159987	     19.59854463	    119.74817918	     13.31276605	    -18.25413719	     21.87411609	     28.43559599	    119.74817918
      3.00000000	     -0.95081635	     -2.56939472	    -26.54288399	      1.03063944	      1.00170345	      0.21619091	      6.78489023	     -2.13599835	     -4.29783325	     13.97148322	      7.74805289	     -7.52576676	      0.00000000	      8.50861518	      1.29857997	     -0.39737522	     10.40234446	      8.19581787	    -10.95429244	      0.00000000	     -9.85937001	      2.96124595	     12.95371246	     16.28461374	    -17.01702296	      2.65326314	     19.82404930	    119.74817918	     12.92929218	    -17.88568907	     21.97943074	     28.27055032	    119.74817918
      3.01666670	     -0.71233705	     -2.64284827	    -26.66175486	      1.02813436	      1.00233459	      0.21790925	      6.51677723	     -1.96955525	     -4.17698721	     13.77065174	      7.77955366	     -7.31550005	      0.00000000	      8.94453087	      1.13153863	     -0.77231491	     11.62365267	      8.13337637	    -11.18132076	      0.00000000	    -10.10289163	      2.76380248	     12.78031498	     16.61669632	    -16.91329682	      2.64328333	     19.99982467	    119.74817918	     12.64698485	    -17.51498435	     22.02103952	     27.97776272	    119.74817918
      3.03333330	     -0.12977018	     -2.32040332	    -26.56617764	      1.02493321	      1.00425147	      0.22005704	      5.97643841	     -2.34882878	     -4.22892910	     13.27963855	      7.57328868	     -7.13663314	      0.00000000	      9.80739434	      1.44719289	     -1.61613522	     13.77446090	      7.57753727	    -11.51336221	      0.00000000	    -10.55888030	      1.85967174	     12.44693983	     17.05803482	    -16.58516272	      2.70440075	     20.12448497	    119.74817918	     12.67504352	    -17.26630801	     22.04493742	     27.57330235	    119.74369706
      3.05000000	     -0.13034272	     -2.10012475	    -26.24318202	      1.02125376	      1.00498942	      0.22177398	      6.07671421	     -2.34171337	     -4.59622028	     13.03740200	      7.61205372	     -7.06661515	      0.00000000	     11.71800312	      1.12853827	     -3.30922468	     16.88447901	      7.88985075	    -10.07974513	      0.00000000	    -10.50733296	      1.39818966	     11.85850031	     17.77093499	    -16.25823224	      3.24420505	     19.75222399	    119.74817918	     12.81296560	    -16.94007001	     22.22327525	     26.54430436	    119.74817918
      3.06666670	      0.44617745	     -1.80957245	    -26.15638406	      1.01792012	      1.00662109	      0.22376992	      5.55184844	     -2.67950245	     -4.44867038	     12.60226699	      7.44612928	     -6.82171289	      0.00000000	     12.58416979	      1.33565092	     -4.08985243	     19.11137588	      7.29149394	    -10.32813664	      0.00000000	    -11.03146858	      0.56954649	     11.51884091	     18.30803527	    -15.98799026	      3.35397662	     20.07464278	    119.74817918	     12.86125523	    -16.72797745	     22.23625249	     26.19198232	    119.74409550
      3.08333330	      0.26568907	     -1.80023442	    -25.91151202	      1.01443799	      1.00708796	      0.22595418	      5.63761411	     -2.33674190	     -4.58134881	     12.19151679	      7.34307516	     -6.87986102	      0.00000000	     14.57105812	      0.54676438	     -5.85786602	     22.37308865	      7.59047868	     -8.70416411	      0.00000000	    -10.84620996	      0.41826980	     11.03832604	     18.92719986	    -15.85767797	      4.51118606	     20.13957213	    119.74817918	     12.88531503	    -16.33722806	     22.14221762	     25.15858581	    119.74817918
      3.10000000	      0.68272913	     -1.58706523	    -25.80956916	      1.01157020	      1.00847719	      0.22852308	      5.11934040	     -2.48073631	     -4.52920283	     11.60999054	      7.28699103	     -6.73332736	      0.00000000	     15.52585507	      0.47062540	     -6.74146089	     24.70939396	      6.66036949	     -8.71751138	      0.00000000	    -11.13809639	     -0.26762029	     10.62884868	     19.45400965	    -15.57804556	      4.72770090	     20.54653607	    119.74817918	     12.75488063	    -16.16971930	     22.09299591	     24.66228283	    119.74817918
      3.11666670	      0.93478049	     -1.48442101	    -25.65314058	      1.00925837	      1.00957752	      0.23116816	      4.68798144	     -2.43435218	     -4.51004209	     11.05284908	      7.26600706	     -6.63860805	      0.00000000	     16.62157764	      0.19053806	     -7.54208830	     27.27337380	      5.86351042	     -8.58310059	      0.00000000	    -11.23130016	     -0.72968693	     10.19557257	     19.89113384	    -15.37742020	      5.02442308	     21.00231925	    119.74817918	     12.53023450	    -15.95018587	     21.97745586	     24.05598335	    119.74062112
      3.13333330	      0.47638435	     -1.71793368	    -25.25471742	      1.00664710	      1.00948031	      0.23338830	      4.85801013	     -1.73580733	     -4.75344322	     10.59595399	      6.74074298	     -6.74618516	      0.00000000	     18.57996409	     -0.76007475	     -8.03044183	     30.51351734	      5.95113177	     -7.70376733	      0.00000000	    -10.76039541	     -0.46077371	      9.71980990	     20.23192350	    -15.51536136	      5.94783339	     21.54813961	    119.74817918	     12.33976317	    -15.49415179	     21.44749813	     23.34026997	    119.73610894
      3.15000000	      0.41338044	     -1.73315476	    -24.90227680	      1.00433822	      1.00984355	      0.23583611	      4.77764896	     -1.43056379	     -4.90087059	     10.25286000	      6.48904336	     -7.00349997	      0.00000000	     19.90877579	     -1.18990338	     -8.33958283	     33.25694083	      5.61679354	     -6.78485282	      0.00000000	    -10.56400580	     -0.67201257	      9.05825423	     20.73069127	    -15.52494106	      6.82643689	     22.08758700	    119.74817918	     11.97058662	    -15.32269692	     20.93334057	     23.10158384	    119.74677693
      3.16666670	      0.44934919	     -1.88408471	    -24.77143065	      1.00209949	      1.01030203	      0.23857677	      4.55782592	     -1.03635241	     -4.94365907	      9.93660898	      6.38850803	     -7.00839212	      0.00000000	     20.89972612	     -1.66725170	     -8.51816752	     35.71200199	      5.54571817	     -6.35208565	      0.00000000	    -10.52041925	     -0.83376078	      8.65818322	     21.22667831	    -15.63362535	      7.59127393	     22.71232971	    119.74817918	     11.64723193	    -15.06143500	     20.41828192	     22.74420070	    119.73008691
      3.18333330	      0.71909506	     -1.82160693	    -24.75243494	      1.00010836	      1.01097741	      0.24144132	      4.25450371	     -0.97507139	     -4.90296900	      9.74422541	      6.52727235	     -6.96411692	      0.00000000	     21.42442163	     -1.74145224	     -8.67733457	     37.51058770	      5.40815363	     -6.33842351	      0.00000000	    -10.59630686	     -1.36773079	      8.24539182	     21.78768482	    -15.60364542	      7.82785813	     23.30594628	    119.74817918	     11.29548573	    -14.96425331	     20.29442595	     22.39188443	    119.72619499
      3.20000000	      0.58716026	     -2.06977677	    -24.38860768	      0.99808033	      1.01104920	      0.24357521	      4.10607424	     -0.46535511	     -5.41026820	      9.36892537	      6.30970908	     -6.89580410	      0.00000000	     22.33516156	     -2.18601060	     -8.40103905	     39.33765409	      5.93189150	     -5.93736518	      0.00000000	    -10.43087247	     -1.34034009	      7.73304890	     22.18390950	    -15.98341678	      8.90902014	     24.19881001	    119.74817918	     11.05516348	    -14.60139802	     19.70152346	     21.98802205	    119.65662355
      3.21666670	      0.81263263	     -1.96658239	    -24.48154016	      0.99635048	      1.01165076	      0.24606757	      3.93162198	     -0.48523431	     -5.48596933	      9.29546224	      6.27361294	     -6.89085787	      0.00000000	     22.52541767	     -2.12324328	     -8.42150831	     40.23064056	      6.03938215	     -6.03497683	      0.00000000	    -10.40334283	     -1.88403359	      7.65908242	     22.70104632	    -16.09765930	      8.91214660	     24.47440025	    119.74817918	     10.78493980	    -14.42820863	     19.72648731	     21.84004575	    119.66163006
      3.23333330	      0.88613959	     -1.90760466	    -24.37961357	      0.99382621	      1.01193302	      0.24803673	      3.83162571	     -0.37677766	     -5.50692851	      9.04226177	      6.30798334	     -6.82084155	      0.00000000	     22.83088321	     -2.22962358	     -8.70476629	     40.86303731	      6.10054439	     -6.17304437	      0.00000000	    -10.45615920	     -2.27349779	      7.16614360	     23.46642801	    -16.10937010	      9.10857167	     25.13084822	    119.74817918	     10.68317047	    -14.28136065	     19.67713541	     21.52825800	    119.65205063
      3.25000000	      0.85664537	     -1.95719866	    -24.26381738	      0.99205394	      1.01206714	      0.24972563	      3.69865427	     -0.14524975	     -5.65087731	      8.69527133	      6.22084195	     -6.73840222	      0.00000000	     23.03174489	     -2.37199045	     -8.80917655	     41.19132316	      5.95659716	     -6.20572929	      0.00000000	    -10.34668337	     -2.40794278	      6.70232696	     24.10497159	    -16.28532960	      9.62580961	     25.87677345	    119.74817918	     10.44545394	    -14.09467448	     19.55285815	     21.03664289	    119.62346930
      3.26666670	      0.83418772	     -1.98007649	    -24.32079199	      0.99018546	      1.01213488	      0.25137021	      3.68446286	      0.04645738	     -5.81929666	      8.50421790	      6.24798794	     -6.80602054	      0.00000000	     23.03964444	     -2.39060467	     -8.75417794	     41.08824998	      5.95350149	     -6.20792680	      0.00000000	    -10.21809654	     -2.61218538	      6.69952344	     24.67304366	    -16.42703603	      9.71437044	     26.19622455	    119.74817918	     10.28463364	    -13.86314519	     19.56879646	     20.92187995	    119.62491541
      3.28333330	      0.79013002	     -2.13502290	    -24.15801943	      0.98875432	      1.01206324	      0.25256428	      3.63557610	      0.34700413	     -5.98038792	      8.39236635	      5.99418913	     -6.73212741	      0.00000000	     22.89890728	     -2.48655208	     -8.73431564	     40.70874373	      5.97732741	     -6.41640993	      0.00000000	    -10.12198601	     -2.52621614	      6.16722434	     25.33468396	    -16.56910823	     10.40027957	     26.96401996	    119.74817918	      9.98233655	    -13.58960171	     19.47848294	     20.32161984	    119.59758379
      3.30000000	      0.84575429	     -2.52730139	    -23.57666412	      0.98797946	      1.01212978	      0.25258540	      3.14510998	      0.79127137	     -6.70287534	      7.87516828	      5.83199407	     -6.86617844	      0.00000000	     22.38413050	     -2.26563897	     -7.61962313	     39.82852753	      6.00129428	     -6.80567835	      0.00000000	    -10.17320102	     -2.23135704	      5.59081445	     25.96363976	    -17.39408759	     13.44783069	     27.55507776	    119.74817918	     10.08601993	    -12.99977615	     18.91013232	     19.46428688	    119.41874539
